<?xml version="1.0" encoding="UTF-8"?>
<svg xmlns="http://www.w3.org/2000/svg" width="1200" height="900" viewBox="0 0 1200 900">
  <rect width="1200" height="900" fill="#1a2332"/>
  <rect x="40" y="40" width="1120" height="820" fill="none" stroke="#3d5a80" stroke-width="3"/>
  <text x="60" y="80" fill="#e0fbfc" font-family="DejaVu Sans, sans-serif" font-size="26" font-weight="bold">Terra World — Top-Down District Town Layout</text>
  <text x="60" y="110" fill="#98c1d9" font-family="DejaVu Sans, sans-serif" font-size="13">7 spending districts around Budget Hall (Town-Hall analog). Not combat — presentation only.</text>
  <circle cx="600" cy="470" r="90" fill="#ee6c4d" stroke="#f4a261" stroke-width="3"/>
  <text x="600" y="465" text-anchor="middle" fill="white" font-family="DejaVu Sans, sans-serif" font-size="16" font-weight="bold">BUDGET HALL</text>
  <text x="600" y="488" text-anchor="middle" fill="#ffe8d6" font-family="DejaVu Sans, sans-serif" font-size="12">(Town Hall)</text>
  <line x1="600" y1="470" x2="320" y2="250" stroke="#4a5568" stroke-width="6"/>
  <polygon points="320,205 385,250 320,295 255,250" fill="#e76f51" stroke="white" stroke-width="2"/>
  <text x="320" y="255" text-anchor="middle" fill="white" font-family="DejaVu Sans, sans-serif" font-size="13" font-weight="bold">Dining</text>
  <line x1="600" y1="470" x2="880" y2="250" stroke="#4a5568" stroke-width="6"/>
  <polygon points="880,205 945,250 880,295 815,250" fill="#2a9d8f" stroke="white" stroke-width="2"/>
  <text x="880" y="255" text-anchor="middle" fill="white" font-family="DejaVu Sans, sans-serif" font-size="13" font-weight="bold">Groceries</text>
  <line x1="600" y1="470" x2="260" y2="510" stroke="#4a5568" stroke-width="6"/>
  <polygon points="260,465 325,510 260,555 195,510" fill="#457b9d" stroke="white" stroke-width="2"/>
  <text x="260" y="515" text-anchor="middle" fill="white" font-family="DejaVu Sans, sans-serif" font-size="13" font-weight="bold">Transport</text>
  <line x1="600" y1="470" x2="940" y2="510" stroke="#4a5568" stroke-width="6"/>
  <polygon points="940,465 1005,510 940,555 875,510" fill="#9b5de5" stroke="white" stroke-width="2"/>
  <text x="940" y="515" text-anchor="middle" fill="white" font-family="DejaVu Sans, sans-serif" font-size="13" font-weight="bold">Entertainment</text>
  <line x1="600" y1="470" x2="400" y2="730" stroke="#4a5568" stroke-width="6"/>
  <polygon points="400,685 465,730 400,775 335,730" fill="#f4a261" stroke="white" stroke-width="2"/>
  <text x="400" y="735" text-anchor="middle" fill="white" font-family="DejaVu Sans, sans-serif" font-size="13" font-weight="bold">Shopping</text>
  <line x1="600" y1="470" x2="800" y2="730" stroke="#4a5568" stroke-width="6"/>
  <polygon points="800,685 865,730 800,775 735,730" fill="#00bbf9" stroke="white" stroke-width="2"/>
  <text x="800" y="735" text-anchor="middle" fill="white" font-family="DejaVu Sans, sans-serif" font-size="13" font-weight="bold">Subscriptions</text>
  <line x1="600" y1="470" x2="600" y2="170" stroke="#4a5568" stroke-width="6"/>
  <polygon points="600,125 665,170 600,215 535,170" fill="#8d99ae" stroke="white" stroke-width="2"/>
  <text x="600" y="175" text-anchor="middle" fill="white" font-family="DejaVu Sans, sans-serif" font-size="13" font-weight="bold">Other</text>
</svg>
