<?xml version="1.0" encoding="UTF-8"?>
<svg xmlns="http://www.w3.org/2000/svg" width="1200" height="850" viewBox="0 0 1200 850">
<rect width="1200" height="850" fill="#1b1b2f"/>
<text x="40" y="50" fill="#fffffe" font-family="DejaVu Sans, sans-serif" font-size="26" font-weight="bold">Building → District Mapping Concept</text>
<text x="40" y="80" fill="#a7a9be" font-family="DejaVu Sans, sans-serif" font-size="13">CoC hierarchy analogs → Terra (no combat). Defenses explicitly unmapped.</text>
<rect x="40" y="110" width="520" height="700" fill="#16213e" stroke="#0f3460" stroke-width="2"/>
<rect x="640" y="110" width="520" height="700" fill="#1a1a2e" stroke="#e94560" stroke-width="2"/>
<text x="60" y="145" fill="#e94560" font-family="DejaVu Sans, sans-serif" font-size="18" font-weight="bold">Clash of Clans analog</text>
<text x="660" y="145" fill="#53d8fb" font-family="DejaVu Sans, sans-serif" font-size="18" font-weight="bold">Terra World mapping</text>
<rect x="55" y="170" width="490" height="70" fill="#0f3460" stroke="#533483"/>
<text x="70" y="210" fill="#eee" font-family="DejaVu Sans, sans-serif" font-size="15">Town Hall</text>
<polygon points="575,205 620,195 620,215" fill="#e94560"/>
<rect x="655" y="170" width="490" height="70" fill="#162447" stroke="#1f4068"/>
<text x="670" y="210" fill="#53d8fb" font-family="DejaVu Sans, sans-serif" font-size="15">Budget Hall</text>
<rect x="55" y="260" width="490" height="70" fill="#0f3460" stroke="#533483"/>
<text x="70" y="300" fill="#eee" font-family="DejaVu Sans, sans-serif" font-size="15">Clan Castle</text>
<polygon points="575,295 620,285 620,305" fill="#e94560"/>
<rect x="655" y="260" width="490" height="70" fill="#162447" stroke="#1f4068"/>
<text x="670" y="300" fill="#53d8fb" font-family="DejaVu Sans, sans-serif" font-size="15">Campus / Shared Hub</text>
<rect x="55" y="350" width="490" height="70" fill="#0f3460" stroke="#533483"/>
<text x="70" y="390" fill="#eee" font-family="DejaVu Sans, sans-serif" font-size="15">Resource Collectors</text>
<polygon points="575,385 620,375 620,395" fill="#e94560"/>
<rect x="655" y="350" width="490" height="70" fill="#162447" stroke="#1f4068"/>
<text x="670" y="390" fill="#53d8fb" font-family="DejaVu Sans, sans-serif" font-size="15">District Buildings</text>
<rect x="55" y="440" width="490" height="70" fill="#0f3460" stroke="#533483"/>
<text x="70" y="480" fill="#eee" font-family="DejaVu Sans, sans-serif" font-size="15">Storages</text>
<polygon points="575,475 620,465 620,485" fill="#e94560"/>
<rect x="655" y="440" width="490" height="70" fill="#162447" stroke="#1f4068"/>
<text x="670" y="480" fill="#53d8fb" font-family="DejaVu Sans, sans-serif" font-size="15">Reserve Vault</text>
<rect x="55" y="530" width="490" height="70" fill="#0f3460" stroke="#533483"/>
<text x="70" y="570" fill="#eee" font-family="DejaVu Sans, sans-serif" font-size="15">Builder Huts</text>
<polygon points="575,565 620,555 620,575" fill="#e94560"/>
<rect x="655" y="530" width="490" height="70" fill="#162447" stroke="#1f4068"/>
<text x="670" y="570" fill="#53d8fb" font-family="DejaVu Sans, sans-serif" font-size="15">Caretaker / Helpers</text>
<rect x="55" y="620" width="490" height="70" fill="#0f3460" stroke="#533483"/>
<text x="70" y="660" fill="#eee" font-family="DejaVu Sans, sans-serif" font-size="15">Scenery</text>
<polygon points="575,655 620,645 620,665" fill="#e94560"/>
<rect x="655" y="620" width="490" height="70" fill="#162447" stroke="#1f4068"/>
<text x="670" y="660" fill="#53d8fb" font-family="DejaVu Sans, sans-serif" font-size="15">World Theme / Season</text>
<rect x="55" y="710" width="490" height="70" fill="#0f3460" stroke="#533483"/>
<text x="70" y="750" fill="#eee" font-family="DejaVu Sans, sans-serif" font-size="15">Defenses (SKIP)</text>
<polygon points="575,745 620,735 620,755" fill="#e94560"/>
<rect x="655" y="710" width="490" height="70" fill="#162447" stroke="#1f4068"/>
<text x="670" y="750" fill="#53d8fb" font-family="DejaVu Sans, sans-serif" font-size="15">— do not map</text>
</svg>